<svg width="933" height="735" viewBox="0 0 933 735" fill="none" xmlns="http://www.w3.org/2000/svg">
<path d="M217.823 730.968L259.933 658.416H673.487L715.597 730.968H217.823Z" fill="black" stroke="white" stroke-width="8"/>
<path d="M417.655 116.251V116.24H515L515.636 116.298L516.5 117.5L696.368 390.097L697.322 391.112L621.203 506.442L621.495 506L621.167 506.489H312.088V506.407L236.116 391.299L417.655 116.251ZM622.69 391.322L489.022 188.792H444.288L310.629 391.299L338.767 433.937H594.562L622.69 391.322Z" fill="black" stroke="white" stroke-width="8"/>
<path d="M811.522 390.004L812.5 391L662.35 618.728H271.079L120.852 391.112L121.898 390.004L376 4.02328H376.656V4.01169H556.773V4.02328H557.5L811.522 390.004ZM195.502 391.345L297.694 546.176H635.735L737.927 391.345L530.159 76.5522H403.261L195.502 391.345Z" fill="black" stroke="white" stroke-width="8"/>
<path d="M337.987 4.00002L82.4945 391.112H8L263.483 4.00002H337.987Z" fill="black" stroke="white" stroke-width="8"/>
<path d="M669.937 4.00002L925.42 391.112H850.925L595.433 4.00002H669.937Z" fill="black" stroke="white" stroke-width="8"/>
<path d="M360.188 394.249L465.829 228.479L573.232 394.249H360.188Z" fill="black" stroke="white" stroke-width="8"/>
</svg>
