<svg width="918" height="727" viewBox="0 0 918 727" fill="none" xmlns="http://www.w3.org/2000/svg">
<path d="M254.236 658.416L216.77 722.968H700.65L663.184 658.416H254.236Z" fill="white" stroke="white" stroke-width="8"/>
<path d="M616.815 504.231L616.834 504.203L692.66 389.315L694.402 386.676L692.236 384.372L616.815 504.231ZM616.815 504.231L616.542 504.645L616.542 504.646L616.815 504.231ZM232.909 387.299L306.295 498.489H611.02L684.387 387.327L505.515 116.24H411.816L232.909 387.299ZM618.028 385.119L619.482 387.322L618.028 389.525L589.9 432.14L588.714 433.937H586.562H330.767H328.614L327.428 432.14L299.291 389.502L297.837 387.298L299.291 385.095L432.95 182.588L434.136 180.792H436.288H481.022H483.174L484.36 182.588L618.028 385.119Z" fill="white" stroke="white" stroke-width="8"/>
<path d="M652.196 610.728L799.549 387.243L547.344 4.02328H544.773V4.01169H372.656V4.02328H370.156L117.801 387.349L265.232 610.728H652.196ZM184.164 389.549L182.71 387.345L184.164 385.142L391.923 70.3488L393.108 68.5522H395.261H522.159H524.311L525.497 70.3487L733.265 385.142L734.719 387.345L733.265 389.549L631.074 544.38L629.888 546.176H627.735H289.694H287.541L286.355 544.38L184.164 389.549Z" fill="white" stroke="white" stroke-width="8"/>
<path d="M7.43249 383.112H72.3418L322.554 4.00003H257.636L7.43249 383.112Z" fill="white" stroke="white" stroke-width="8"/>
<path d="M594.866 4.00003L845.078 383.112H909.987L659.784 4.00003H594.866Z" fill="white" stroke="white" stroke-width="8"/>
<path d="M557.874 386.249L457.857 231.878L359.481 386.249H557.874Z" fill="white" stroke="white" stroke-width="8"/>
</svg>
