<svg width="1250" height="1221" viewBox="0 0 1250 1221" fill="none" xmlns="http://www.w3.org/2000/svg">
<rect width="1250" height="1250" rx="25" fill="#282828"/>
<path d="M375.823 988.968L417.933 916.416H831.487L873.597 988.968H375.823Z" fill="white"/>
<path d="M575.655 374.251V374.24H673.636V374.298L673.654 374.274L854.368 648.097L855.322 649.112L779.203 764.442L779.167 764.407V764.489H470.088V764.407L394.116 649.299L575.655 374.251ZM780.69 649.322L647.022 446.792H602.288L468.629 649.299L496.767 691.937H752.562L780.69 649.322Z" fill="white"/>
<path d="M969.522 648.004L970.568 649.112L820.35 876.728H429.079L278.852 649.112L279.898 648.004L534.647 262.012L534.656 262.023V262.012H714.773V262.023L714.782 262.012L969.522 648.004ZM353.502 649.345L455.694 804.176H793.735L895.927 649.345L688.159 334.552H561.261L353.502 649.345Z" fill="white"/>
<path d="M495.987 262L240.494 649.112H166L421.483 262H495.987Z" fill="white"/>
<path d="M827.937 262L1083.42 649.112H1008.93L753.433 262H827.937Z" fill="white"/>
<path d="M518.188 652.249L623.829 486.479L731.232 652.249H518.188Z" fill="white"/>
</svg>
