<?xml version="1.0" encoding="UTF-8" standalone="no"?>
<svg
   xmlns:dc="http://purl.org/dc/elements/1.1/"
   xmlns:cc="http://creativecommons.org/ns#"
   xmlns:rdf="http://www.w3.org/1999/02/22-rdf-syntax-ns#"
   xmlns:svg="http://www.w3.org/2000/svg"
   xmlns="http://www.w3.org/2000/svg"
   version="1.1"
   id="Слой_1"
   x="0px"
   y="0px"
   viewBox="0 0 1000 1000"
   style="enable-background:new 0 0 1000 1000;"
   xml:space="preserve"><metadata
   id="metadata23"><rdf:RDF><cc:Work
       rdf:about=""><dc:format>image/svg+xml</dc:format><dc:type
         rdf:resource="http://purl.org/dc/dcmitype/StillImage" /><dc:title></dc:title></cc:Work></rdf:RDF></metadata><defs
   id="defs21" />
<style
   type="text/css"
   id="style2">
	.st0{fill:#262626;}
</style>
<g
   id="g16"
   transform="matrix(0.91741984,0,0,-1.166246,41.290081,1113.6638)">
	<polygon
   class="st0"
   points="228.71,188.33 274.61,250.54 725.39,250.54 771.29,188.33 "
   id="polygon4" />
	<path
   class="st0"
   d="m 446.53,715.42 v 0 0.01 h 106.8 v -0.05 l 0.02,0.02 196.98,-234.79 1.04,-0.87 -82.97,-98.89 -0.04,0.03 v -0.07 h -336.9 v 0.07 l -82.81,98.7 v 0 z M 670.02,479.56 524.32,653.22 H 475.56 L 329.87,479.58 360.54,443.02 h 278.82 z"
   id="path6" />
	<path
   class="st0"
   d="m 875.85,480.69 1.14,-0.95 -163.74,-195.17 v 0 0 0 0 H 286.76 v 0 0 0 0 l -163.75,195.17 1.14,0.95 277.68,330.97 0.01,-0.01 v 0.01 h 196.33 v -0.01 l 0.01,0.01 z M 204.38,479.54 315.77,346.78 H 684.24 L 795.63,479.54 569.16,749.46 H 430.84 Z"
   id="path8" />
	<polygon
   class="st0"
   points="359.69,811.67 81.2,479.74 0,479.74 278.48,811.67 "
   id="polygon10" />
	<polygon
   class="st0"
   points="721.52,811.67 1000,479.74 918.8,479.74 640.31,811.67 "
   id="polygon12" />
	<polygon
   class="st0"
   points="383.89,477.05 499.04,619.19 616.11,477.05 "
   id="polygon14" />
</g>
</svg>
