<svg width="1000" height="1000" viewBox="0 0 1000 1000" fill="none" xmlns="http://www.w3.org/2000/svg">
<path d="M295.236 795.416L257.77 859.968H741.65L704.184 795.416H295.236Z" stroke="white" stroke-width="8"/>
<path d="M657.815 641.231L657.834 641.203L733.66 526.315L735.402 523.676L733.236 521.372L657.815 641.231ZM657.815 641.231L657.542 641.645L657.542 641.646L657.815 641.231ZM273.909 524.299L347.295 635.489H652.02L725.387 524.327L546.515 253.24H452.816L273.909 524.299ZM659.028 522.119L660.482 524.322L659.028 526.525L630.9 569.14L629.714 570.937H627.562H371.767H369.614L368.428 569.14L340.291 526.502L338.837 524.298L340.291 522.095L473.95 319.588L475.136 317.792H477.288H522.022H524.174L525.36 319.588L659.028 522.119Z" stroke="white" stroke-width="8"/>
<path d="M693.196 747.728L840.549 524.243L588.344 141.023H585.773V141.012H413.656V141.023H411.156L158.801 524.349L306.232 747.728H693.196ZM225.164 526.549L223.71 524.345L225.164 522.142L432.923 207.349L434.108 205.552H436.261H563.159H565.311L566.497 207.349L774.265 522.142L775.719 524.345L774.265 526.549L672.074 681.38L670.888 683.176H668.735H330.694H328.541L327.355 681.38L225.164 526.549Z" stroke="white" stroke-width="8"/>
<path d="M48.4325 520.112H113.342L363.554 141H298.636L48.4325 520.112Z" stroke="white" stroke-width="8"/>
<path d="M635.866 141L886.078 520.112H950.987L700.784 141H635.866Z" stroke="white" stroke-width="8"/>
<path d="M598.874 523.249L498.857 368.878L400.481 523.249H598.874Z" stroke="white" stroke-width="8"/>
</svg>
